<svg width="12" height="7" viewBox="0 0 12 7" fill="none" xmlns="http://www.w3.org/2000/svg">
<path d="M11.5917 0.841713C11.5142 0.763606 11.422 0.701611 11.3205 0.659304C11.2189 0.616997 11.11 0.595215 11 0.595215C10.89 0.595215 10.7811 0.616997 10.6795 0.659304C10.578 0.701611 10.4858 0.763606 10.4083 0.841713L6.59168 4.65838C6.51421 4.73649 6.42204 4.79848 6.32049 4.84079C6.21894 4.8831 6.11002 4.90488 6.00001 4.90488C5.89 4.90488 5.78108 4.8831 5.67953 4.84079C5.57798 4.79848 5.48581 4.73649 5.40834 4.65838L1.59168 0.841713C1.51421 0.763606 1.42204 0.701611 1.32049 0.659304C1.21894 0.616997 1.11002 0.595215 1.00001 0.595215C0.889999 0.595215 0.781078 0.616997 0.679529 0.659304C0.577979 0.701611 0.485812 0.763606 0.408343 0.841713C0.253134 0.997849 0.166016 1.20906 0.166016 1.42921C0.166016 1.64937 0.253134 1.86058 0.408343 2.01671L4.23334 5.84171C4.70209 6.30988 5.33751 6.57285 6.00001 6.57285C6.66251 6.57285 7.29792 6.30988 7.76668 5.84171L11.5917 2.01671C11.7469 1.86058 11.834 1.64937 11.834 1.42921C11.834 1.20906 11.7469 0.997849 11.5917 0.841713Z" fill="#646cff"/>
</svg>
